<svg width="18" height="14" viewBox="0 0 18 14" fill="none" xmlns="http://www.w3.org/2000/svg">
<path d="M8.9999 10.7501C7.02464 10.7501 5.42568 9.22116 5.27855 7.28366L2.54678 5.17246C2.18766 5.62298 1.85719 6.09928 1.59053 6.62012C1.53096 6.73796 1.49992 6.86815 1.49992 7.00019C1.49992 7.13224 1.53096 7.26243 1.59053 7.38027C3.00277 10.1357 5.7986 12.0001 8.9999 12.0001C9.70068 12.0001 10.3767 11.8959 11.0283 11.7277L9.67699 10.6821C9.45382 10.7252 9.22719 10.748 8.9999 10.7501ZM17.1723 12.2631L14.2934 10.0381C15.1679 9.30108 15.8872 8.39754 16.4093 7.38001C16.4689 7.26217 16.4999 7.13198 16.4999 6.99993C16.4999 6.86789 16.4689 6.7377 16.4093 6.61985C14.997 3.86439 12.2012 2.00006 8.9999 2.00006C7.65915 2.00169 6.34017 2.33922 5.16344 2.98183L1.85042 0.421157C1.80722 0.387539 1.75782 0.362764 1.70504 0.348247C1.65226 0.33373 1.59713 0.329756 1.54281 0.336551C1.4885 0.343347 1.43605 0.36078 1.38847 0.387853C1.34089 0.414926 1.29912 0.451109 1.26553 0.494334L0.75433 1.15241C0.686517 1.23964 0.656131 1.35024 0.669854 1.45988C0.683577 1.56952 0.740285 1.66921 0.827507 1.73704L16.1494 13.579C16.1926 13.6126 16.242 13.6374 16.2948 13.6519C16.3476 13.6664 16.4027 13.6704 16.457 13.6636C16.5113 13.6568 16.5638 13.6393 16.6113 13.6123C16.6589 13.5852 16.7007 13.549 16.7343 13.5058L17.2457 12.8477C17.3135 12.7605 17.3439 12.6498 17.3301 12.5402C17.3163 12.4306 17.2596 12.3309 17.1723 12.2631ZM12.3879 8.56517L11.3645 7.77402C11.4507 7.52492 11.4964 7.26363 11.4999 7.00006C11.505 6.61419 11.4195 6.23251 11.2503 5.88567C11.0811 5.53884 10.8329 5.23651 10.5257 5.00298C10.2185 4.76946 9.86079 4.61124 9.48133 4.54104C9.10186 4.47083 8.71122 4.4906 8.34079 4.59876C8.49782 4.81155 8.58277 5.06894 8.58324 5.3334C8.57935 5.4214 8.5659 5.50872 8.54313 5.59381L6.6262 4.1123C7.29209 3.55585 8.13212 3.2507 8.9999 3.25006C9.49244 3.24979 9.9802 3.3466 10.4353 3.53496C10.8904 3.72332 11.3039 3.99953 11.6522 4.3478C12.0004 4.69608 12.2767 5.10958 12.465 5.56468C12.6534 6.01977 12.7502 6.50753 12.7499 7.00006C12.7499 7.56334 12.6121 8.08834 12.3879 8.56543V8.56517Z" fill="#9FA2B4"/>
</svg>
